<svg id="Layer_1" data-name="Layer 1" xmlns="http://www.w3.org/2000/svg" viewBox="0 0 154.75 33.64"><defs><style>.cls-1,.cls-2,.cls-3{fill-rule:evenodd;}.cls-2{fill:#f7ad1a;}.cls-3{fill:#243e8e;}.cls-4{fill:#043597;}.cls-5{fill:#faaf0d;}</style></defs><polygon class="cls-1" points="17.95 31.31 20.73 33.65 20.73 28.98 20.76 28.95 10.44 20.31 0.12 28.95 0.15 28.98 0.15 33.65 2.93 31.31 5.75 28.95 10.44 25.03 15.13 28.95 17.95 31.31"/><polygon class="cls-2" points="14.36 7.41 15.51 8.37 18.2 10.63 20.84 12.84 20.87 12.86 20.87 8.4 20.9 8.37 14.36 2.9 11.02 0.1 10.99 0.11 10.98 0.12 10.98 19.57 14.33 22.37 14.33 22.38 15.51 23.36 18.2 25.62 20.87 27.85 20.84 15.55 17.77 12.91 17.87 20.79 14.34 17.87 14.34 14.86 14.35 10.19 14.36 7.41"/><path class="cls-3" d="M6.24,27.22l3.33-2.79,3.35-2.81,0,0h0V41.1L9.61,43.9h0l-1.18,1-2.7,2.26L3.07,49.38v-.06l-.14.12V29.94l3.28-2.75,0,0Zm3.35,9.07-.09.07h0l-2.93,2.3-.33.26v3.29L9.6,39.4V36.29Zm0-7.35-1.15,1L6.24,31.73V34.6L9.59,32Z" transform="translate(-2.93 -21.63)"/><path class="cls-4" d="M31.75,31h6.11a12.58,12.58,0,0,1,5.93,1.1,4,4,0,0,1,2,3.86,5.39,5.39,0,0,1-.35,2,3.76,3.76,0,0,1-1,1.48,3.45,3.45,0,0,1-1.64.75v.13a5.69,5.69,0,0,1,1.78.69,3.5,3.5,0,0,1,1.26,1.42,5.47,5.47,0,0,1,.48,2.48A5.3,5.3,0,0,1,45.43,48a5.55,5.55,0,0,1-2.49,2,10,10,0,0,1-3.85.67H31.75Zm4.16,7.77h2.42a4.1,4.1,0,0,0,2.51-.57,2.06,2.06,0,0,0,.7-1.68,1.73,1.73,0,0,0-.83-1.62,5.26,5.26,0,0,0-2.61-.49H35.91Zm0,3.3v5.12h2.71a3.66,3.66,0,0,0,2.62-.73A2.6,2.6,0,0,0,42,44.5a2.53,2.53,0,0,0-.32-1.28,2.17,2.17,0,0,0-1.08-.86,5.87,5.87,0,0,0-2.09-.31Z" transform="translate(-2.93 -21.63)"/><path class="cls-4" d="M52,29.72a2.85,2.85,0,0,1,1.57.42,1.73,1.73,0,0,1,.66,1.58,1.74,1.74,0,0,1-.66,1.57,2.78,2.78,0,0,1-1.57.44,2.74,2.74,0,0,1-1.57-.44,1.74,1.74,0,0,1-.66-1.57,1.73,1.73,0,0,1,.66-1.58A2.81,2.81,0,0,1,52,29.72Zm2,5.88v15H49.9v-15Z" transform="translate(-2.93 -21.63)"/><path class="cls-4" d="M68.73,50.6H56.88V48.19l6.95-9.47H57.29V35.6h11.2v2.65l-6.76,9.23h7Z" transform="translate(-2.93 -21.63)"/><path class="cls-4" d="M85.34,43.07a10,10,0,0,1-.51,3.33,6.45,6.45,0,0,1-1.46,2.45,6.14,6.14,0,0,1-2.31,1.51,8.54,8.54,0,0,1-3,.51,8.09,8.09,0,0,1-2.91-.51,6.31,6.31,0,0,1-2.29-1.51,6.66,6.66,0,0,1-1.5-2.45,9.46,9.46,0,0,1-.53-3.33,9.25,9.25,0,0,1,.88-4.23,6.07,6.07,0,0,1,2.53-2.63,8,8,0,0,1,3.9-.9,7.61,7.61,0,0,1,3.74.9,6.37,6.37,0,0,1,2.56,2.63A8.76,8.76,0,0,1,85.34,43.07ZM75,43.07a8.47,8.47,0,0,0,.32,2.49,2.67,2.67,0,0,0,2.79,2,2.86,2.86,0,0,0,1.77-.51,2.91,2.91,0,0,0,1-1.51,8.47,8.47,0,0,0,.32-2.49,8.18,8.18,0,0,0-.32-2.47,2.81,2.81,0,0,0-1-1.49,3,3,0,0,0-1.78-.49,2.63,2.63,0,0,0-2.36,1.11A6.13,6.13,0,0,0,75,43.07Z" transform="translate(-2.93 -21.63)"/><path class="cls-5" d="M97.65,40.32h6.86v9.52a18.93,18.93,0,0,1-3.18.78,23.74,23.74,0,0,1-3.64.25,10.16,10.16,0,0,1-5.16-1.22,7.8,7.8,0,0,1-3.19-3.48,12.24,12.24,0,0,1-1.09-5.38,11.25,11.25,0,0,1,1.2-5.32A8.49,8.49,0,0,1,92.93,32,11.14,11.14,0,0,1,98.4,30.7a15.55,15.55,0,0,1,3.11.3,13.39,13.39,0,0,1,2.73.85l-.87,2A16.45,16.45,0,0,0,101,33a11,11,0,0,0-2.71-.33,8.07,8.07,0,0,0-4.11,1,6.59,6.59,0,0,0-2.62,2.81,9.52,9.52,0,0,0-.9,4.29,10.65,10.65,0,0,0,.79,4.28,6,6,0,0,0,2.47,2.82,8.32,8.32,0,0,0,4.32,1,13.54,13.54,0,0,0,2.28-.16,15.83,15.83,0,0,0,1.73-.36v-6H97.65Z" transform="translate(-2.93 -21.63)"/><path class="cls-5" d="M115.59,35.62c.3,0,.61,0,.93.05a6.27,6.27,0,0,1,.86.13l-.28,2.06a5.66,5.66,0,0,0-.81-.14,6.12,6.12,0,0,0-.83-.06,4,4,0,0,0-1.67.36,4.27,4.27,0,0,0-1.38,1,4.73,4.73,0,0,0-.92,1.6,5.91,5.91,0,0,0-.34,2.07V50.6h-2.24V35.89h1.85L111,38.6h.1a7.26,7.26,0,0,1,1.1-1.49A4.71,4.71,0,0,1,113.7,36,4.33,4.33,0,0,1,115.59,35.62Z" transform="translate(-2.93 -21.63)"/><path class="cls-5" d="M125.81,35.62a6,6,0,0,1,3.22.83,5.49,5.49,0,0,1,2.06,2.33,8.16,8.16,0,0,1,.71,3.5v1.38H121.63a5.79,5.79,0,0,0,1.29,4A4.58,4.58,0,0,0,126.44,49a10.76,10.76,0,0,0,2.47-.26,13.61,13.61,0,0,0,2.23-.75v2a10.74,10.74,0,0,1-2.21.72,12.23,12.23,0,0,1-2.58.23,7.63,7.63,0,0,1-3.7-.86,6,6,0,0,1-2.45-2.55,8.86,8.86,0,0,1-.87-4.11,9.82,9.82,0,0,1,.79-4.11,5.95,5.95,0,0,1,5.69-3.62Zm0,1.83a3.63,3.63,0,0,0-2.84,1.17,5.41,5.41,0,0,0-1.26,3.26h7.78a6.36,6.36,0,0,0-.41-2.32,3.28,3.28,0,0,0-1.2-1.55A3.51,3.51,0,0,0,125.78,37.45Z" transform="translate(-2.93 -21.63)"/><path class="cls-5" d="M141.09,35.65a5.56,5.56,0,0,1,3.9,1.18,4.94,4.94,0,0,1,1.28,3.77v10h-1.63l-.43-2.17h-.1a7.6,7.6,0,0,1-1.29,1.35,4.89,4.89,0,0,1-1.55.82,7.48,7.48,0,0,1-2.16.27,5.78,5.78,0,0,1-2.38-.47A3.65,3.65,0,0,1,135.09,49a4.47,4.47,0,0,1-.59-2.42,3.85,3.85,0,0,1,1.74-3.38,10.11,10.11,0,0,1,5.32-1.29l2.53-.11v-.9a3.54,3.54,0,0,0-.82-2.67,3.22,3.22,0,0,0-2.3-.76,7.34,7.34,0,0,0-2.21.33,15.16,15.16,0,0,0-2,.8l-.69-1.7a12.16,12.16,0,0,1,2.29-.87A10,10,0,0,1,141.09,35.65Zm3,7.7-2.25.1a7.49,7.49,0,0,0-3.87.9,2.56,2.56,0,0,0-1.13,2.24,2.25,2.25,0,0,0,.76,1.87,3.2,3.2,0,0,0,2,.6A4.68,4.68,0,0,0,142.82,48a4.09,4.09,0,0,0,1.25-3.26Z" transform="translate(-2.93 -21.63)"/><path class="cls-5" d="M155.61,49.05a7.4,7.4,0,0,0,1.13-.1,5,5,0,0,0,.94-.23v1.74a5.09,5.09,0,0,1-1.08.29,7.87,7.87,0,0,1-1.35.12,5.17,5.17,0,0,1-2.12-.41,3.16,3.16,0,0,1-1.53-1.39,5.38,5.38,0,0,1-.57-2.71V37.64h-2.09V36.55l2.11-.87.88-3.2h1.35v3.41h4.3v1.75h-4.3v8.65a3,3,0,0,0,.63,2.07A2.21,2.21,0,0,0,155.61,49.05Z" transform="translate(-2.93 -21.63)"/></svg>